<svg xmlns="http://www.w3.org/2000/svg" width="760" height="420" font-family="DejaVu Sans, sans-serif">
<rect width="760" height="420" fill="#ffffff"/>
<text x="380.0" y="30" text-anchor="middle" font-size="18" font-weight="bold">0305: Laplacian CPU/GPU benchmarks (1024x1024)</text>
<line x1="90" y1="330" x2="720" y2="330" stroke="#333" stroke-width="1"/>
<rect x="90.0" y="232.9" width="111.6" height="97.1" fill="#8172b3"/>
<text x="145.8" y="226.9" text-anchor="middle" font-size="12">441.4 us</text>
<text x="145.8" y="348.0" text-anchor="middle" font-size="11" fill="#555">1.00x</text>
<text x="145.8" y="368.0" text-anchor="end" font-size="12" transform="rotate(-30 145.8 368.0)">cpu simd (avx2)</text>
<rect x="219.6" y="230.2" width="111.6" height="99.8" fill="#c44e52"/>
<text x="275.4" y="224.2" text-anchor="middle" font-size="12">453.8 us</text>
<text x="275.4" y="348.0" text-anchor="middle" font-size="11" fill="#555">0.97x</text>
<text x="275.4" y="368.0" text-anchor="end" font-size="12" transform="rotate(-30 275.4 368.0)">cpu openmp</text>
<rect x="349.2" y="144.4" width="111.6" height="185.6" fill="#4c72b0"/>
<text x="405.0" y="138.4" text-anchor="middle" font-size="12">843.5 us</text>
<text x="405.0" y="348.0" text-anchor="middle" font-size="11" fill="#555">0.52x</text>
<text x="405.0" y="368.0" text-anchor="end" font-size="12" transform="rotate(-30 405.0 368.0)">cpu scalar</text>
<rect x="478.8" y="112.3" width="111.6" height="217.7" fill="#55a868"/>
<text x="534.6" y="106.3" text-anchor="middle" font-size="12">989.6 us</text>
<text x="534.6" y="348.0" text-anchor="middle" font-size="11" fill="#555">0.45x</text>
<text x="534.6" y="368.0" text-anchor="end" font-size="12" transform="rotate(-30 534.6 368.0)">cpu tiled</text>
<rect x="608.4" y="70.0" width="111.6" height="260.0" fill="#ccb974"/>
<text x="664.2" y="64.0" text-anchor="middle" font-size="12">1.18 ms</text>
<text x="664.2" y="348.0" text-anchor="middle" font-size="11" fill="#555">0.37x</text>
<text x="664.2" y="368.0" text-anchor="end" font-size="12" transform="rotate(-30 664.2 368.0)">cuda</text>
<text x="90" y="416" font-size="11" fill="#777">lower is better; labels show speedup vs fastest</text>
</svg>